<svg width="16" height="16" viewBox="0 0 16 16" fill="none" xmlns="http://www.w3.org/2000/svg">
<path d="M8.4607 3.84817L7.47303 2.9188L1.80793 8.24951L1.4785 9.48829L2.79498 9.17888L8.4607 3.84817Z" fill="white"/>
<path d="M10.3285 2.0902L9.34084 3.01961L8.35312 2.09023L9.3408 1.16081L10.3285 2.0902Z" fill="white"/>
<path d="M0.622848 10.88C0.67329 10.88 0.723733 10.8741 0.773552 10.8624L3.26453 10.2764C3.37413 10.2507 3.47439 10.1973 3.5541 10.1223L11.2095 2.9188C11.4449 2.69729 11.5744 2.40313 11.5744 2.09021C11.5744 1.7773 11.4449 1.48313 11.2095 1.26163L10.2218 0.332254C9.75102 -0.110751 8.93149 -0.110751 8.4607 0.332254L0.805312 7.53578C0.725601 7.61079 0.668931 7.70513 0.641531 7.80768L0.0187871 10.1516C-0.0347688 10.3514 0.0281283 10.5624 0.182569 10.7083C0.300267 10.8196 0.459689 10.88 0.622848 10.88ZM9.3408 1.16081L10.3285 2.0902L9.34084 3.01961L8.35312 2.09023L9.3408 1.16081ZM1.80793 8.24951L7.47303 2.9188L8.4607 3.84817L2.79498 9.17888L1.4785 9.48829L1.80793 8.24951Z" fill="white"/>
<path d="M10.7476 6.40039C10.7476 10.0145 8.12145 10.918 5.78711 11.2004C7.82965 11.2004 10.7476 12.8945 10.7476 16.0004C10.7476 13.2898 12.2065 11.7651 15.9998 11.2004C12.4983 10.918 10.7476 9.33686 10.7476 6.40039Z" fill="white"/>
</svg>
