<svg width="14" height="19" viewBox="0 0 14 19" fill="none" xmlns="http://www.w3.org/2000/svg">
<path d="M5.95 14.7473L10.9078 9.78959L10.1885 9.07034L5.94425 13.3146L3.80575 11.1761L3.09225 11.8896L5.95 14.7473ZM1.6155 18.8818C1.15517 18.8818 0.770833 18.7277 0.4625 18.4193C0.154167 18.111 0 17.7267 0 17.2663V2.49734C0 2.037 0.154167 1.65267 0.4625 1.34434C0.770833 1.036 1.15517 0.881836 1.6155 0.881836H9.5L14 5.38184V17.2663C14 17.7267 13.8458 18.111 13.5375 18.4193C13.2292 18.7277 12.8448 18.8818 12.3845 18.8818H1.6155ZM9 5.88184V1.88184H1.6155C1.4615 1.88184 1.32042 1.94592 1.19225 2.07409C1.06408 2.20225 1 2.34334 1 2.49734V17.2663C1 17.4203 1.06408 17.5614 1.19225 17.6896C1.32042 17.8178 1.4615 17.8818 1.6155 17.8818H12.3845C12.5385 17.8818 12.6796 17.8178 12.8077 17.6896C12.9359 17.5614 13 17.4203 13 17.2663V5.88184H9Z" fill="#212121"/>
</svg>
