<svg width="90" height="90" viewBox="0 0 90 90" fill="none" xmlns="http://www.w3.org/2000/svg">
<g filter="url(#filter0_dd_87_701)">
<path d="M13 42C13 24.3269 27.3269 10 45 10C62.6731 10 77 24.3269 77 42C77 59.6731 62.6731 74 45 74H13V42Z" fill="#1AA3B3"/>
<path d="M41.1429 24C41.1429 33.4118 34.7143 35.7647 29 36.5C34 36.5 41.1429 40.9118 41.1429 49C41.1429 41.9412 44.7143 37.9706 54 36.5C45.4286 35.7647 41.1429 31.6471 41.1429 24Z" fill="white"/>
<path d="M54.2857 46C54.2857 51.6471 50.4286 53.0588 47 53.5C50 53.5 54.2857 56.1471 54.2857 61C54.2857 56.7647 56.4286 54.3824 62 53.5C56.8571 53.0588 54.2857 50.5882 54.2857 46Z" fill="white"/>
</g>
<defs>
<filter id="filter0_dd_87_701" x="0.2" y="0.4" width="89.6" height="89.6" filterUnits="userSpaceOnUse" color-interpolation-filters="sRGB">
<feFlood flood-opacity="0" result="BackgroundImageFix"/>
<feColorMatrix in="SourceAlpha" type="matrix" values="0 0 0 0 0 0 0 0 0 0 0 0 0 0 0 0 0 0 127 0" result="hardAlpha"/>
<feOffset dy="3.2"/>
<feGaussianBlur stdDeviation="6.4"/>
<feColorMatrix type="matrix" values="0 0 0 0 0.2 0 0 0 0 0.2 0 0 0 0 0.2 0 0 0 0.08 0"/>
<feBlend mode="normal" in2="BackgroundImageFix" result="effect1_dropShadow_87_701"/>
<feColorMatrix in="SourceAlpha" type="matrix" values="0 0 0 0 0 0 0 0 0 0 0 0 0 0 0 0 0 0 127 0" result="hardAlpha"/>
<feOffset dy="3.2"/>
<feGaussianBlur stdDeviation="1.6"/>
<feColorMatrix type="matrix" values="0 0 0 0 0.2 0 0 0 0 0.2 0 0 0 0 0.2 0 0 0 0.04 0"/>
<feBlend mode="normal" in2="effect1_dropShadow_87_701" result="effect2_dropShadow_87_701"/>
<feBlend mode="normal" in="SourceGraphic" in2="effect2_dropShadow_87_701" result="shape"/>
</filter>
</defs>
</svg>
