<svg width="17" height="16" viewBox="0 0 17 16" fill="none" xmlns="http://www.w3.org/2000/svg">
<path d="M11.836 3.33301C11.8347 3.33301 11.834 3.33301 11.8334 3.33301H11.8327H6.50004C5.27471 3.33301 4.10937 3.82434 3.21737 4.71701C2.32471 5.60967 1.83337 6.77501 1.83337 7.99967C1.83337 9.22501 2.32471 10.3903 3.21737 11.2823C4.10937 12.175 5.27471 12.6663 6.50004 12.6663H11.8334V11.333H6.50004C5.63137 11.333 4.80004 10.9803 4.16004 10.3397C3.51937 9.69967 3.16671 8.86834 3.16671 7.99967C3.16671 7.13167 3.51937 6.30034 4.16004 5.65967C4.80004 5.01901 5.63137 4.66634 6.50004 4.66634H11.8334V3.99967L11.834 4.66634C11.8347 4.66634 11.8354 4.66634 11.836 4.66634C12.3627 4.66634 12.862 4.87567 13.242 5.25701C13.6227 5.63767 13.8327 6.13834 13.8334 6.66767C13.834 7.19367 13.6247 7.69367 13.244 8.07434C12.862 8.45567 12.3607 8.66567 11.8334 8.66634H6.50004C6.32937 8.66634 6.16337 8.59501 6.03471 8.46634C5.90471 8.33634 5.83337 8.17034 5.83337 7.99967C5.83337 7.83167 5.90671 7.66167 6.03404 7.53434C6.16337 7.40434 6.32937 7.33301 6.50004 7.33301H11.8334V5.99967H6.50004C5.97337 5.99967 5.47271 6.20967 5.09071 6.59234C4.70937 6.97367 4.50004 7.47367 4.50004 7.99967C4.50004 8.52567 4.70937 9.02634 5.09204 9.40901C5.47337 9.79034 5.97404 9.99967 6.50004 9.99967H11.834C12.7167 9.99901 13.552 9.65101 14.186 9.01767C14.82 8.38434 15.168 7.54834 15.1667 6.66567C15.166 5.78167 14.8174 4.94634 14.1854 4.31434C13.5534 3.68101 12.7187 3.33301 11.836 3.33301Z" fill="#1D818C"/>
</svg>
