<svg width="24" height="24" viewBox="0 0 24 24" fill="none" xmlns="http://www.w3.org/2000/svg">
<path d="M5.425 10.1251V10.1376H5.4375H10.125H10.1375V10.1251V5.43752V5.42502H10.125H5.4375H5.425V5.43752V10.1251ZM13.8625 10.1251V10.1376H13.875H18.5625H18.575V10.1251V5.43752V5.42502H18.5625H13.875H13.8625V5.43752V10.1251ZM13.8625 18.5627V18.5752H13.875H18.5625H18.575V18.5627V13.8752V13.8627H18.5625H13.875H13.8625V13.8752V18.5627ZM5.425 18.5627V18.5752H5.4375H10.125H10.1375V18.5627V13.8752V13.8627H10.125H5.4375H5.425V13.8752V18.5627ZM4.5125 11.0501V4.5125H11.05V11.0501H4.5125ZM4.5125 19.4878V12.9502H11.05V19.4878H4.5125ZM12.95 11.0501V4.5125H19.4875V11.0501H12.95ZM12.95 19.4878V12.9502H19.4875V19.4878H12.95Z" fill="#19A3B3" stroke="#19A3B3" stroke-width="0.025"/>
</svg>
