<svg width="24" height="24" viewBox="0 0 24 24" fill="none" xmlns="http://www.w3.org/2000/svg">
<g clip-path="url(#clip0_380_2819)">
<path d="M4.67492 9.22406L4.67491 9.22405C4.56669 9.11247 4.5125 8.9744 4.5125 8.80899C4.5125 8.65383 4.56652 8.52437 4.67463 8.41977L4.67464 8.41975C4.78262 8.31498 4.91646 8.2625 5.07703 8.2625C5.23744 8.2625 5.3712 8.31498 5.47919 8.41975L5.4792 8.41977C5.58731 8.52437 5.64133 8.65383 5.64133 8.80899C5.64133 8.9744 5.58713 9.11247 5.47892 9.22405L5.47891 9.22406C5.37087 9.33561 5.2372 9.39135 5.07703 9.39135C4.91671 9.39135 4.78295 9.33561 4.67492 9.22406ZM4.67464 12.3893L4.67464 12.3893C4.56652 12.2845 4.5125 12.1551 4.5125 12.0001C4.5125 11.8212 4.56687 11.6802 4.67465 11.5754L4.67466 11.5754C4.78264 11.4703 4.91647 11.4177 5.07703 11.4177C5.23743 11.4177 5.37119 11.4703 5.47917 11.5754L5.47918 11.5754C5.58695 11.6802 5.64133 11.8212 5.64133 12.0001C5.64133 12.1551 5.58731 12.2845 5.47919 12.3893L5.47919 12.3893C5.3712 12.4941 5.23744 12.5466 5.07703 12.5466C4.91646 12.5466 4.78262 12.4941 4.67464 12.3893ZM4.67463 14.7661L4.67464 14.766C4.78262 14.6613 4.91646 14.6088 5.07703 14.6088C5.23744 14.6088 5.3712 14.6613 5.47919 14.766L5.4792 14.7661C5.58731 14.8707 5.64133 15.0001 5.64133 15.1553C5.64133 15.3207 5.58713 15.4588 5.47892 15.5703L5.47891 15.5703C5.37087 15.6819 5.2372 15.7376 5.07703 15.7376C4.91671 15.7376 4.78295 15.6819 4.67492 15.5703L4.67491 15.5703C4.56669 15.4588 4.5125 15.3207 4.5125 15.1553C4.5125 15.0001 4.56652 14.8707 4.67463 14.7661ZM7.93789 9.2833V8.37078H19.4875V9.2833H7.93789ZM7.93789 12.4563V11.5438H19.4875V12.4563H7.93789ZM7.93789 15.6294V14.7168H19.4875V15.6294H7.93789Z" fill="#1D818C" stroke="white" stroke-width="0.025"/>
</g>
<defs>
<clipPath id="clip0_380_2819">
<rect width="24" height="24" fill="white"/>
</clipPath>
</defs>
</svg>
