<svg width="25" height="24" viewBox="0 0 25 24" fill="none" xmlns="http://www.w3.org/2000/svg">
<path d="M11.45 16.8655L16.4078 11.9078L15.6885 11.1885L11.4442 15.4327L9.30575 13.2942L8.59225 14.0078L11.45 16.8655ZM7.1155 21C6.65517 21 6.27083 20.8458 5.9625 20.5375C5.65417 20.2292 5.5 19.8448 5.5 19.3845V4.6155C5.5 4.15517 5.65417 3.77083 5.9625 3.4625C6.27083 3.15417 6.65517 3 7.1155 3H15L19.5 7.5V19.3845C19.5 19.8448 19.3458 20.2292 19.0375 20.5375C18.7292 20.8458 18.3448 21 17.8845 21H7.1155ZM14.5 8V4H7.1155C6.9615 4 6.82042 4.06408 6.69225 4.19225C6.56408 4.32042 6.5 4.4615 6.5 4.6155V19.3845C6.5 19.5385 6.56408 19.6796 6.69225 19.8078C6.82042 19.9359 6.9615 20 7.1155 20H17.8845C18.0385 20 18.1796 19.9359 18.3077 19.8078C18.4359 19.6796 18.5 19.5385 18.5 19.3845V8H14.5Z" fill="#1AA3B3"/>
</svg>
