<svg width="20" height="15" viewBox="0 0 20 15" fill="none" xmlns="http://www.w3.org/2000/svg">
<path d="M11.8845 5.4745V4.54375C12.4218 4.27192 12.9972 4.06808 13.6105 3.93225C14.224 3.79642 14.8538 3.7285 15.5 3.7285C15.8692 3.7285 16.2237 3.75217 16.5635 3.7995C16.9032 3.847 17.2538 3.91433 17.6155 4.0015V4.90925C17.2667 4.79758 16.9266 4.72033 16.5953 4.6775C16.2638 4.6345 15.8987 4.613 15.5 4.613C14.8538 4.613 14.2231 4.68575 13.6077 4.83125C12.9923 4.97675 12.4178 5.19117 11.8845 5.4745ZM11.8845 10.936V9.96675C12.3962 9.69508 12.9683 9.49125 13.601 9.35525C14.2337 9.21942 14.8667 9.1515 15.5 9.1515C15.8692 9.1515 16.2237 9.17525 16.5635 9.22275C16.9032 9.27008 17.2538 9.33733 17.6155 9.4245V10.3322C17.2667 10.2207 16.9266 10.1435 16.5953 10.1005C16.2638 10.0575 15.8987 10.036 15.5 10.036C14.8538 10.036 14.2231 10.1143 13.6077 10.2708C12.9923 10.4271 12.4178 10.6488 11.8845 10.936ZM11.8845 8.2245V7.25525C12.4218 6.98358 12.9972 6.77975 13.6105 6.64375C14.224 6.50792 14.8538 6.44 15.5 6.44C15.8692 6.44 16.2237 6.46367 16.5635 6.511C16.9032 6.5585 17.2538 6.62583 17.6155 6.713V7.62075C17.2667 7.50925 16.9266 7.432 16.5953 7.389C16.2638 7.346 15.8987 7.3245 15.5 7.3245C14.8538 7.3245 14.2231 7.40367 13.6077 7.562C12.9923 7.72033 12.4178 7.94117 11.8845 8.2245ZM4.5 11.9207C5.373 11.9207 6.222 12.0211 7.047 12.2217C7.872 12.4224 8.68967 12.749 9.5 13.2015V3.39C8.77817 2.8745 7.98267 2.48792 7.1135 2.23025C6.24417 1.97258 5.373 1.84375 4.5 1.84375C3.9 1.84375 3.37467 1.87967 2.924 1.9515C2.47333 2.02333 1.973 2.15667 1.423 2.3515C1.26917 2.40283 1.16025 2.47658 1.09625 2.57275C1.03208 2.66875 1 2.7745 1 2.89V11.9052C1 12.0848 1.06408 12.2162 1.19225 12.2995C1.32042 12.3828 1.4615 12.3925 1.6155 12.3285C1.98083 12.2053 2.40292 12.1066 2.88175 12.0322C3.36058 11.9579 3.9 11.9207 4.5 11.9207ZM10.5 13.2015C11.3103 12.749 12.128 12.4224 12.953 12.2217C13.778 12.0211 14.627 11.9207 15.5 11.9207C16.1 11.9207 16.6394 11.9579 17.1182 12.0322C17.5971 12.1066 18.0192 12.2053 18.3845 12.3285C18.5385 12.3925 18.6796 12.3828 18.8078 12.2995C18.9359 12.2162 19 12.0848 19 11.9052V2.89C19 2.7745 18.9679 2.67192 18.9038 2.58225C18.8398 2.49258 18.7308 2.41567 18.577 2.3515C18.027 2.15667 17.5267 2.02333 17.076 1.9515C16.6253 1.87967 16.1 1.84375 15.5 1.84375C14.627 1.84375 13.7558 1.97258 12.8865 2.23025C12.0173 2.48792 11.2218 2.8745 10.5 3.39V13.2015ZM10 14.6515C9.18717 14.095 8.31408 13.6674 7.38075 13.3687C6.44742 13.0701 5.48717 12.9207 4.5 12.9207C3.9795 12.9207 3.46825 12.9643 2.96625 13.0515C2.46442 13.1387 1.97567 13.2784 1.5 13.4707C1.13717 13.6156 0.7965 13.572 0.478 13.34C0.159333 13.108 0 12.7875 0 12.3785V2.713C0 2.4655 0.0650833 2.236 0.19525 2.0245C0.325417 1.813 0.50775 1.66558 0.74225 1.58225C1.32942 1.32325 1.94033 1.13542 2.575 1.01875C3.20967 0.902083 3.85133 0.84375 4.5 0.84375C5.4795 0.84375 6.43492 0.98475 7.36625 1.26675C8.29775 1.54892 9.17567 1.95925 10 2.49775C10.8243 1.95925 11.7022 1.54892 12.6337 1.26675C13.5651 0.98475 14.5205 0.84375 15.5 0.84375C16.1487 0.84375 16.7903 0.902083 17.425 1.01875C18.0597 1.13542 18.6706 1.32325 19.2577 1.58225C19.4923 1.66558 19.6746 1.813 19.8048 2.0245C19.9349 2.236 20 2.4655 20 2.713V12.3785C20 12.7875 19.8279 13.1016 19.4837 13.3208C19.1394 13.5399 18.773 13.5771 18.3845 13.4323C17.9218 13.2527 17.4491 13.1226 16.9663 13.0417C16.4836 12.9611 15.9948 12.9207 15.5 12.9207C14.5128 12.9207 13.5526 13.0701 12.6193 13.3687C11.6859 13.6674 10.8128 14.095 10 14.6515Z" fill="#212121"/>
</svg>
