<svg width="16" height="17" viewBox="0 0 16 17" fill="none" xmlns="http://www.w3.org/2000/svg">
<path d="M6.11479 11.3279L8.00012 9.44254L9.88545 11.3279L10.8281 10.3852L8.94279 8.49988L10.8281 6.61454L9.88545 5.67188L8.00012 7.55721L6.11479 5.67188L5.17212 6.61454L7.05745 8.49988L5.17212 10.3852L6.11479 11.3279Z" fill="#545253"/>
<path d="M7.99992 15.1663C11.6759 15.1663 14.6666 12.1757 14.6666 8.49967C14.6666 4.82367 11.6759 1.83301 7.99992 1.83301C4.32392 1.83301 1.33325 4.82367 1.33325 8.49967C1.33325 12.1757 4.32392 15.1663 7.99992 15.1663ZM7.99992 3.16634C10.9406 3.16634 13.3333 5.55901 13.3333 8.49967C13.3333 11.4403 10.9406 13.833 7.99992 13.833C5.05925 13.833 2.66659 11.4403 2.66659 8.49967C2.66659 5.55901 5.05925 3.16634 7.99992 3.16634Z" fill="#545253"/>
</svg>
